<?xml version="1.0" encoding="UTF-8" standalone="no"?>
<!-- Created with Inkscape (http://www.inkscape.org/) -->

<svg
   version="1.1"
   id="svg1"
   width="157"
   height="35.808666"
   viewBox="0 0 157 35.808666"
   sodipodi:docname="au.svg"
   inkscape:version="1.3.2 (091e20e, 2023-11-25)"
   xmlns:inkscape="http://www.inkscape.org/namespaces/inkscape"
   xmlns:sodipodi="http://sodipodi.sourceforge.net/DTD/sodipodi-0.dtd"
   xmlns="http://www.w3.org/2000/svg"
   xmlns:svg="http://www.w3.org/2000/svg">
  <defs
     id="defs1">
    <clipPath
       clipPathUnits="userSpaceOnUse"
       id="clipPath3">
      <path
         d="M 0,26.856 H 128.25 V 0 H 0 Z"
         transform="translate(-48.298101,-14.5698)"
         id="path3" />
    </clipPath>
    <clipPath
       clipPathUnits="userSpaceOnUse"
       id="clipPath5">
      <path
         d="M 0,26.856 H 128.25 V 0 H 0 Z"
         transform="translate(-64.357402,-17.3672)"
         id="path5" />
    </clipPath>
    <clipPath
       clipPathUnits="userSpaceOnUse"
       id="clipPath7">
      <path
         d="M 0,26.856 H 128.25 V 0 H 0 Z"
         transform="translate(-72.098102,-17.3672)"
         id="path7" />
    </clipPath>
    <clipPath
       clipPathUnits="userSpaceOnUse"
       id="clipPath9">
      <path
         d="M 0,26.856 H 128.25 V 0 H 0 Z"
         transform="translate(-77.683599,-18.5742)"
         id="path9" />
    </clipPath>
    <clipPath
       clipPathUnits="userSpaceOnUse"
       id="clipPath11">
      <path
         d="M 0,26.856 H 128.25 V 0 H 0 Z"
         transform="translate(-81.516602,-22.250001)"
         id="path11" />
    </clipPath>
    <clipPath
       clipPathUnits="userSpaceOnUse"
       id="clipPath13">
      <path
         d="M 0,26.856 H 128.25 V 0 H 0 Z"
         transform="translate(-88.864705,-22.250001)"
         id="path13" />
    </clipPath>
    <clipPath
       clipPathUnits="userSpaceOnUse"
       id="clipPath15">
      <path
         d="M 0,26.856 H 128.25 V 0 H 0 Z"
         transform="translate(-96.502405,-16.8189)"
         id="path15" />
    </clipPath>
    <clipPath
       clipPathUnits="userSpaceOnUse"
       id="clipPath17">
      <path
         d="M 0,26.856 H 128.25 V 0 H 0 Z"
         transform="translate(-59.935501,-10.323701)"
         id="path17" />
    </clipPath>
    <clipPath
       clipPathUnits="userSpaceOnUse"
       id="clipPath19">
      <path
         d="M 0,26.856 H 128.25 V 0 H 0 Z"
         transform="translate(-67.322302,-10.598201)"
         id="path19" />
    </clipPath>
    <clipPath
       clipPathUnits="userSpaceOnUse"
       id="clipPath21">
      <path
         d="M 0,26.856 H 128.25 V 0 H 0 Z"
         id="path21" />
    </clipPath>
    <clipPath
       clipPathUnits="userSpaceOnUse"
       id="clipPath23">
      <path
         d="M 0,26.856 H 128.25 V 0 H 0 Z"
         transform="translate(-77.122104,-10.323701)"
         id="path23" />
    </clipPath>
    <clipPath
       clipPathUnits="userSpaceOnUse"
       id="clipPath25">
      <path
         d="M 0,26.856 H 128.25 V 0 H 0 Z"
         transform="translate(-84.755402,-10.323701)"
         id="path25" />
    </clipPath>
    <clipPath
       clipPathUnits="userSpaceOnUse"
       id="clipPath27">
      <path
         d="M 0,26.856 H 128.25 V 0 H 0 Z"
         transform="translate(-93.317905,-6.6479999)"
         id="path27" />
    </clipPath>
    <clipPath
       clipPathUnits="userSpaceOnUse"
       id="clipPath29">
      <path
         d="M 0,26.856 H 128.25 V 0 H 0 Z"
         transform="translate(-97.601605,-4.8926001)"
         id="path29" />
    </clipPath>
    <clipPath
       clipPathUnits="userSpaceOnUse"
       id="clipPath31">
      <path
         d="M 0,26.856 H 128.25 V 0 H 0 Z"
         id="path31" />
    </clipPath>
    <clipPath
       clipPathUnits="userSpaceOnUse"
       id="clipPath33">
      <path
         d="M 0,26.856 H 128.25 V 0 H 0 Z"
         transform="translate(-107.13231,-9.5557005)"
         id="path33" />
    </clipPath>
    <clipPath
       clipPathUnits="userSpaceOnUse"
       id="clipPath35">
      <path
         d="M 0,26.856 H 128.25 V 0 H 0 Z"
         transform="translate(-113.39841,-6.2309999)"
         id="path35" />
    </clipPath>
  </defs>
  <sodipodi:namedview
     id="namedview1"
     pagecolor="#ffffff"
     bordercolor="#000000"
     borderopacity="0.25"
     inkscape:showpageshadow="2"
     inkscape:pageopacity="0.0"
     inkscape:pagecheckerboard="0"
     inkscape:deskcolor="#d1d1d1"
     inkscape:zoom="4.5659892"
     inkscape:cx="79.938867"
     inkscape:cy="17.958869"
     inkscape:window-width="1408"
     inkscape:window-height="449"
     inkscape:window-x="0"
     inkscape:window-y="30"
     inkscape:window-maximized="0"
     inkscape:current-layer="layer-MC0">
    <inkscape:page
       x="0"
       y="0"
       inkscape:label="1"
       id="page1"
       width="157"
       height="35.808666"
       margin="3.0123734 15.178667 0.37746668 0.37795067"
       bleed="0" />
  </sodipodi:namedview>
  <g
     id="layer-MC0"
     inkscape:groupmode="layer"
     inkscape:label="Layer 1">
    <path
       id="path1"
       d="m 0,0 h 8.474 l 15.534,15.509 v 8.498 z"
       style="fill:#1f3f8d;fill-opacity:1;fill-rule:nonzero;stroke:none"
       transform="matrix(1.3333333,0,0,-1.3333333,0.378,32.387467)" />
    <path
       id="path2"
       d="m 0,0 c 0,-1.665 -0.312,-3.225 -0.936,-4.682 -0.625,-1.456 -1.481,-2.724 -2.569,-3.804 -1.089,-1.081 -2.361,-1.937 -3.817,-2.569 -1.457,-0.633 -3.017,-0.949 -4.682,-0.949 -1.104,0 -2.169,0.144 -3.193,0.433 -1.024,0.288 -1.98,0.692 -2.869,1.212 -0.888,0.52 -1.696,1.144 -2.424,1.873 -0.729,0.727 -1.353,1.536 -1.873,2.424 -0.52,0.889 -0.924,1.844 -1.212,2.869 -0.288,1.024 -0.432,2.089 -0.432,3.193 h 6.002 c 0,-0.816 0.159,-1.588 0.48,-2.317 0.32,-0.728 0.752,-1.364 1.296,-1.908 0.544,-0.545 1.18,-0.977 1.909,-1.297 0.728,-0.32 1.5,-0.48 2.316,-0.48 0.832,0 1.613,0.16 2.341,0.48 0.728,0.32 1.365,0.752 1.909,1.297 0.544,0.544 0.972,1.18 1.284,1.908 0.312,0.729 0.468,1.501 0.468,2.317 z"
       style="fill:#1f3f8d;fill-opacity:1;fill-rule:nonzero;stroke:none"
       transform="matrix(1.3333333,0,0,-1.3333333,64.397467,16.382267)"
       clip-path="url(#clipPath3)" />
    <path
       id="path4"
       d="M 0,0 -1.591,3.423 -3.072,0 Z m -1.602,5.267 3.786,-8.065 h -0.89 l -0.943,2.03 h -3.752 l -0.878,-2.03 h -0.889 z"
       style="fill:#1f3f8d;fill-opacity:1;fill-rule:nonzero;stroke:none"
       transform="matrix(1.3333333,0,0,-1.3333333,85.809867,12.6524)"
       clip-path="url(#clipPath5)" />
    <path
       id="path6"
       d="M 0,0 -1.591,3.423 -3.072,0 Z m -1.602,5.267 3.786,-8.065 h -0.89 l -0.943,2.03 h -3.752 l -0.878,-2.03 h -0.889 z"
       style="fill:#1f3f8d;fill-opacity:1;fill-rule:nonzero;stroke:none"
       transform="matrix(1.3333333,0,0,-1.3333333,96.1308,12.6524)"
       clip-path="url(#clipPath7)" />
    <path
       id="path8"
       d="m 0,0 c 0.271,0 0.512,0.039 0.724,0.115 0.212,0.077 0.388,0.181 0.527,0.313 0.139,0.132 0.245,0.285 0.318,0.461 0.073,0.175 0.11,0.362 0.11,0.559 0,0.198 -0.037,0.386 -0.11,0.565 C 1.496,2.192 1.39,2.348 1.251,2.479 1.112,2.611 0.936,2.716 0.724,2.792 0.512,2.869 0.271,2.908 0,2.908 H -1.789 V 0 Z M -2.611,3.676 H 0.055 C 0.435,3.676 0.777,3.617 1.081,3.5 1.384,3.383 1.64,3.224 1.849,3.023 2.057,2.822 2.218,2.585 2.332,2.315 2.445,2.044 2.501,1.755 2.501,1.448 2.501,1.163 2.454,0.894 2.359,0.642 2.264,0.39 2.125,0.167 1.942,-0.027 1.759,-0.221 1.538,-0.382 1.278,-0.51 1.019,-0.638 0.724,-0.721 0.395,-0.757 L 2.611,-4.005 H 1.613 l -2.195,3.237 h -1.207 v -3.237 h -0.822 z"
       style="fill:#1f3f8d;fill-opacity:1;fill-rule:nonzero;stroke:none"
       transform="matrix(1.3333333,0,0,-1.3333333,103.57813,11.043067)"
       clip-path="url(#clipPath9)" />
    <path
       id="path10"
       d="M 0,0 H 0.823 V -3.292 H 4.882 V 0 H 5.706 V -7.681 H 4.882 V -4.06 H 0.823 V -7.681 H 0 Z"
       style="fill:#1f3f8d;fill-opacity:1;fill-rule:nonzero;stroke:none"
       transform="matrix(1.3333333,0,0,-1.3333333,108.6888,6.142)"
       clip-path="url(#clipPath11)" />
    <path
       id="path12"
       d="m 0,0 h 0.834 v -4.905 c 0,-0.409 0.059,-0.753 0.175,-1.031 0.117,-0.278 0.269,-0.501 0.456,-0.669 0.186,-0.169 0.398,-0.29 0.636,-0.362 0.238,-0.074 0.478,-0.11 0.719,-0.11 0.241,0 0.481,0.036 0.719,0.11 0.237,0.072 0.449,0.193 0.636,0.362 0.186,0.168 0.338,0.391 0.455,0.669 0.117,0.278 0.176,0.622 0.176,1.031 V 0 H 5.64 V -5.025 C 5.64,-5.494 5.559,-5.903 5.398,-6.254 5.237,-6.605 5.023,-6.9 4.756,-7.138 4.489,-7.375 4.187,-7.553 3.851,-7.67 3.515,-7.787 3.171,-7.845 2.82,-7.845 2.469,-7.845 2.125,-7.787 1.789,-7.67 1.452,-7.553 1.15,-7.375 0.883,-7.138 0.616,-6.9 0.402,-6.605 0.241,-6.254 0.081,-5.903 0,-5.494 0,-5.025 Z"
       style="fill:#1f3f8d;fill-opacity:1;fill-rule:nonzero;stroke:none"
       transform="matrix(1.3333333,0,0,-1.3333333,118.48627,6.142)"
       clip-path="url(#clipPath13)" />
    <path
       id="path14"
       d="M 0,0 C 0,-0.234 0.038,-0.452 0.115,-0.653 0.192,-0.854 0.3,-1.028 0.439,-1.174 0.578,-1.321 0.744,-1.436 0.938,-1.52 1.132,-1.604 1.35,-1.646 1.591,-1.646 c 0.241,0 0.462,0.039 0.664,0.115 0.201,0.077 0.374,0.185 0.521,0.324 0.146,0.139 0.259,0.302 0.34,0.488 0.08,0.187 0.121,0.389 0.121,0.609 0,0.205 -0.044,0.384 -0.132,0.538 C 3.017,0.582 2.9,0.715 2.754,0.828 2.607,0.941 2.438,1.044 2.244,1.135 2.05,1.227 1.851,1.312 1.646,1.393 1.36,1.503 1.086,1.614 0.823,1.728 0.56,1.841 0.327,1.979 0.126,2.139 -0.075,2.3 -0.238,2.492 -0.362,2.715 c -0.125,0.223 -0.187,0.507 -0.187,0.851 0,0.285 0.053,0.552 0.159,0.801 0.106,0.248 0.253,0.464 0.439,0.647 0.187,0.183 0.411,0.325 0.675,0.428 0.263,0.102 0.552,0.154 0.867,0.154 0.322,0 0.616,-0.055 0.883,-0.165 C 2.741,5.321 2.97,5.171 3.16,4.981 3.35,4.791 3.496,4.566 3.599,4.306 3.701,4.047 3.752,3.763 3.752,3.456 H 2.908 C 2.908,3.873 2.785,4.206 2.54,4.455 2.295,4.703 1.979,4.828 1.591,4.828 1.203,4.828 0.887,4.712 0.642,4.482 0.396,4.251 0.274,3.946 0.274,3.566 0.274,3.361 0.322,3.187 0.417,3.044 0.512,2.902 0.636,2.777 0.79,2.671 0.943,2.565 1.121,2.47 1.322,2.386 1.523,2.302 1.733,2.216 1.953,2.128 2.231,2.019 2.496,1.905 2.749,1.788 3.001,1.671 3.224,1.53 3.417,1.366 3.611,1.201 3.767,1.002 3.884,0.768 4.001,0.534 4.06,0.241 4.06,-0.11 4.06,-0.454 3.996,-0.767 3.868,-1.048 3.739,-1.33 3.564,-1.573 3.341,-1.778 3.118,-1.982 2.856,-2.14 2.556,-2.25 2.256,-2.359 1.935,-2.414 1.591,-2.414 c -0.344,0 -0.662,0.06 -0.955,0.181 -0.292,0.121 -0.547,0.289 -0.762,0.504 -0.216,0.216 -0.386,0.471 -0.511,0.763 -0.124,0.293 -0.186,0.614 -0.186,0.966 z"
       style="fill:#1f3f8d;fill-opacity:1;fill-rule:nonzero;stroke:none"
       transform="matrix(1.3333333,0,0,-1.3333333,128.66987,13.383467)"
       clip-path="url(#clipPath15)" />
    <path
       id="path16"
       d="m 0,0 h 0.834 v -4.905 c 0,-0.409 0.059,-0.753 0.175,-1.031 0.117,-0.278 0.269,-0.501 0.456,-0.669 0.186,-0.169 0.398,-0.29 0.636,-0.362 0.238,-0.074 0.478,-0.11 0.719,-0.11 0.241,0 0.481,0.036 0.719,0.11 0.237,0.072 0.449,0.193 0.636,0.362 0.186,0.168 0.338,0.391 0.455,0.669 0.117,0.278 0.176,0.622 0.176,1.031 V 0 H 5.64 V -5.025 C 5.64,-5.494 5.559,-5.903 5.398,-6.254 5.237,-6.605 5.023,-6.9 4.756,-7.138 4.489,-7.375 4.187,-7.553 3.851,-7.67 3.515,-7.787 3.171,-7.845 2.82,-7.845 2.469,-7.845 2.125,-7.787 1.789,-7.67 1.452,-7.553 1.15,-7.375 0.883,-7.138 0.616,-6.9 0.402,-6.605 0.241,-6.254 0.081,-5.903 0,-5.494 0,-5.025 Z"
       style="fill:#1f3f8d;fill-opacity:1;fill-rule:nonzero;stroke:none"
       transform="matrix(1.3333333,0,0,-1.3333333,79.914,22.043733)"
       clip-path="url(#clipPath17)" />
    <path
       id="path18"
       d="m 0,0 5.365,-6.156 v 5.882 H 6.188 V -8.229 L 0.823,-2.096 V -7.955 H 0 Z"
       style="fill:#1f3f8d;fill-opacity:1;fill-rule:nonzero;stroke:none"
       transform="matrix(1.3333333,0,0,-1.3333333,89.763067,21.677733)"
       clip-path="url(#clipPath19)" />
    <path
       id="path20"
       d="m 75.326,10.324 h 0.823 V 2.643 h -0.823 z"
       style="fill:#1f3f8d;fill-opacity:1;fill-rule:nonzero;stroke:none"
       transform="matrix(1.3333333,0,0,-1.3333333,0,35.808667)"
       clip-path="url(#clipPath21)" />
    <path
       id="path22"
       d="M 0,0 H 0.899 L 3.445,-6.046 5.815,0 H 6.693 L 3.456,-8.064 Z"
       style="fill:#1f3f8d;fill-opacity:1;fill-rule:nonzero;stroke:none"
       transform="matrix(1.3333333,0,0,-1.3333333,102.82947,22.043733)"
       clip-path="url(#clipPath23)" />
    <path
       id="path24"
       d="M 0,0 H 4.608 V -0.768 H 0.823 V -3.292 H 4.279 V -4.06 H 0.823 V -6.913 H 4.608 V -7.681 H 0 Z"
       style="fill:#1f3f8d;fill-opacity:1;fill-rule:nonzero;stroke:none"
       transform="matrix(1.3333333,0,0,-1.3333333,113.0072,22.043733)"
       clip-path="url(#clipPath25)" />
    <path
       id="path26"
       d="m 0,0 c 0.271,0 0.512,0.039 0.724,0.115 0.212,0.077 0.388,0.181 0.527,0.313 0.139,0.132 0.245,0.285 0.318,0.461 0.073,0.175 0.11,0.362 0.11,0.559 0,0.198 -0.037,0.386 -0.11,0.565 C 1.496,2.192 1.39,2.348 1.251,2.479 1.112,2.611 0.936,2.716 0.724,2.792 0.512,2.869 0.271,2.908 0,2.908 H -1.789 V 0 Z M -2.611,3.676 H 0.055 C 0.435,3.676 0.777,3.617 1.081,3.5 1.384,3.383 1.64,3.224 1.849,3.023 2.057,2.822 2.218,2.585 2.332,2.315 2.445,2.044 2.501,1.755 2.501,1.448 2.501,1.163 2.454,0.894 2.359,0.642 2.264,0.39 2.125,0.167 1.942,-0.027 1.759,-0.221 1.538,-0.382 1.278,-0.51 1.019,-0.638 0.724,-0.721 0.395,-0.757 L 2.611,-4.005 H 1.613 l -2.195,3.237 h -1.207 v -3.237 h -0.822 z"
       style="fill:#1f3f8d;fill-opacity:1;fill-rule:nonzero;stroke:none"
       transform="matrix(1.3333333,0,0,-1.3333333,124.42387,26.944667)"
       clip-path="url(#clipPath27)" />
    <path
       id="path28"
       d="M 0,0 C 0,-0.234 0.038,-0.452 0.115,-0.653 0.192,-0.854 0.3,-1.028 0.439,-1.174 0.578,-1.321 0.744,-1.436 0.938,-1.52 1.132,-1.604 1.35,-1.646 1.591,-1.646 c 0.241,0 0.462,0.039 0.664,0.115 0.201,0.077 0.374,0.185 0.521,0.324 0.146,0.139 0.259,0.302 0.34,0.488 0.08,0.187 0.121,0.389 0.121,0.609 0,0.205 -0.044,0.384 -0.132,0.538 C 3.017,0.582 2.9,0.715 2.754,0.828 2.607,0.941 2.438,1.044 2.244,1.135 2.05,1.227 1.851,1.312 1.646,1.393 1.36,1.503 1.086,1.614 0.823,1.728 0.56,1.841 0.327,1.979 0.126,2.139 -0.075,2.3 -0.238,2.492 -0.362,2.715 c -0.125,0.223 -0.187,0.507 -0.187,0.851 0,0.285 0.053,0.552 0.159,0.801 0.106,0.248 0.253,0.464 0.439,0.647 0.187,0.183 0.411,0.325 0.675,0.428 0.263,0.102 0.552,0.154 0.867,0.154 0.322,0 0.616,-0.055 0.883,-0.165 C 2.741,5.321 2.97,5.171 3.16,4.981 3.35,4.791 3.496,4.566 3.599,4.306 3.701,4.047 3.752,3.763 3.752,3.456 H 2.908 C 2.908,3.873 2.785,4.206 2.54,4.455 2.295,4.703 1.979,4.828 1.591,4.828 1.203,4.828 0.887,4.712 0.642,4.482 0.396,4.251 0.274,3.946 0.274,3.566 0.274,3.361 0.322,3.187 0.417,3.044 0.512,2.902 0.636,2.777 0.79,2.671 0.943,2.565 1.121,2.47 1.322,2.386 1.523,2.302 1.733,2.216 1.953,2.128 2.231,2.019 2.496,1.905 2.749,1.788 3.001,1.671 3.224,1.53 3.417,1.366 3.611,1.201 3.767,1.002 3.884,0.768 4.001,0.534 4.06,0.241 4.06,-0.11 4.06,-0.454 3.996,-0.767 3.868,-1.048 3.739,-1.33 3.564,-1.573 3.341,-1.778 3.118,-1.982 2.856,-2.14 2.556,-2.25 2.256,-2.359 1.935,-2.414 1.591,-2.414 c -0.344,0 -0.662,0.06 -0.955,0.181 -0.292,0.121 -0.547,0.289 -0.762,0.504 -0.216,0.216 -0.386,0.471 -0.511,0.763 -0.124,0.293 -0.186,0.614 -0.186,0.966 z"
       style="fill:#1f3f8d;fill-opacity:1;fill-rule:nonzero;stroke:none"
       transform="matrix(1.3333333,0,0,-1.3333333,130.13547,29.2852)"
       clip-path="url(#clipPath29)" />
    <path
       id="path30"
       d="m 103.087,10.324 h 0.823 V 2.643 h -0.823 z"
       style="fill:#1f3f8d;fill-opacity:1;fill-rule:nonzero;stroke:none"
       transform="matrix(1.3333333,0,0,-1.3333333,0,35.808667)"
       clip-path="url(#clipPath31)" />
    <path
       id="path32"
       d="M 0,0 H -2.249 V 0.768 H 3.072 V 0 H 0.823 V -6.913 H 0 Z"
       style="fill:#1f3f8d;fill-opacity:1;fill-rule:nonzero;stroke:none"
       transform="matrix(1.3333333,0,0,-1.3333333,142.84307,23.067733)"
       clip-path="url(#clipPath33)" />
    <path
       id="path34"
       d="m 0,0 -2.633,4.093 h 0.966 L 0.417,0.757 2.502,4.093 H 3.467 L 0.823,-0.022 V -3.588 H 0 Z"
       style="fill:#1f3f8d;fill-opacity:1;fill-rule:nonzero;stroke:none"
       transform="matrix(1.3333333,0,0,-1.3333333,151.19787,27.500667)"
       clip-path="url(#clipPath35)" />
  </g>
</svg>
