<?xml version="1.0" encoding="UTF-8" standalone="no"?>
<!-- Generator: Adobe Illustrator 26.0.1, SVG Export Plug-In . SVG Version: 6.00 Build 0)  -->

<svg
   version="1.1"
   id="Layer_1"
   x="0px"
   y="0px"
   viewBox="0 0 377.8 155.1"
   style="enable-background:new 0 0 377.8 155.1;"
   xml:space="preserve"
   sodipodi:docname="sdco_logo_outline-01.svg"
   inkscape:version="1.3.2 (091e20e, 2023-11-25)"
   xmlns:inkscape="http://www.inkscape.org/namespaces/inkscape"
   xmlns:sodipodi="http://sodipodi.sourceforge.net/DTD/sodipodi-0.dtd"
   xmlns="http://www.w3.org/2000/svg"
   xmlns:svg="http://www.w3.org/2000/svg"><defs
   id="defs44" /><sodipodi:namedview
   id="namedview44"
   pagecolor="#ffffff"
   bordercolor="#000000"
   borderopacity="0.25"
   inkscape:showpageshadow="2"
   inkscape:pageopacity="0.0"
   inkscape:pagecheckerboard="0"
   inkscape:deskcolor="#d1d1d1"
   inkscape:zoom="1.5215989"
   inkscape:cx="188.94598"
   inkscape:cy="77.221401"
   inkscape:window-width="1920"
   inkscape:window-height="1022"
   inkscape:window-x="1440"
   inkscape:window-y="30"
   inkscape:window-maximized="1"
   inkscape:current-layer="Layer_1" />
<style
   type="text/css"
   id="style1">
	.st0{fill:#5C6F7C;}
	.st1{fill:#78A22F;}
</style>
<g
   id="g44"
   transform="translate(0,2)">
	<g
   id="g25">
		<path
   class="st0"
   d="m 161.6,52.9 c 0,2.7 -0.8,4.9 -2.3,6.5 -1.6,1.7 -3.8,2.5 -6.6,2.5 -2,0 -3.7,-0.5 -5.1,-1.4 -1.4,-0.9 -2.6,-2.2 -3.6,-4 l 3.6,-2.9 c 0.8,1.3 1.7,2.3 2.5,2.8 0.8,0.5 1.8,0.8 2.8,0.8 2.6,0 3.9,-1.4 3.9,-4.2 0,-1.3 -0.4,-2.4 -1.1,-3.3 -0.7,-0.9 -2.2,-2.1 -4.4,-3.6 -2.2,-1.5 -3.8,-2.8 -4.7,-3.9 -1.3,-1.7 -1.9,-3.7 -1.9,-6.1 0,-2.4 0.7,-4.4 2.2,-5.9 1.5,-1.5 3.5,-2.3 6.1,-2.3 1.8,0 3.4,0.4 4.6,1.1 1.2,0.7 2.3,1.8 3.4,3.4 l -3.4,3 c -0.8,-1 -1.5,-1.8 -2.2,-2.2 -0.7,-0.4 -1.5,-0.7 -2.5,-0.7 -1.1,0 -1.9,0.3 -2.5,0.9 -0.6,0.6 -0.9,1.5 -0.9,2.5 0,1.2 0.3,2.2 1,3.1 0.7,0.8 1.9,1.9 3.8,3.1 2.5,1.6 4.2,3 5.2,4.2 1.4,1.9 2.1,4.1 2.1,6.6 z"
   id="path1" />
		<path
   class="st0"
   d="m 174.7,56.6 -0.5,4.2 c -0.6,0.4 -1.2,0.7 -1.8,0.9 -0.6,0.2 -1.4,0.3 -2.2,0.3 -1.6,0 -2.8,-0.5 -3.6,-1.6 -0.8,-1.1 -1.1,-2.6 -1.1,-4.7 V 41 h -2.7 v -4.2 h 2.7 v -7.2 l 4.5,-2.4 v 9.6 h 4.7 V 41 H 170 v 14.2 c 0,1.6 0.6,2.4 1.9,2.4 0.6,0 1.1,-0.1 1.6,-0.3 0.4,-0.1 0.8,-0.4 1.2,-0.7 z"
   id="path2" />
		<path
   class="st0"
   d="m 194.1,49 v 1.6 h -12.9 c 0,2.3 0.4,4.1 1.3,5.3 0.8,1.2 2,1.8 3.4,1.8 1,0 1.8,-0.1 2.4,-0.4 0.6,-0.3 1.3,-0.8 2,-1.5 l 2.8,2.9 c -0.9,1 -2,1.8 -3.2,2.4 -1.2,0.6 -2.6,0.9 -4.1,0.9 -2.9,0 -5.1,-1.1 -6.7,-3.4 -1.6,-2.3 -2.4,-5.4 -2.4,-9.3 0,-4.2 0.8,-7.4 2.4,-9.7 1.5,-2.2 3.6,-3.2 6.3,-3.2 2.6,0 4.7,1 6.2,3.1 1.7,2.1 2.5,5.3 2.5,9.5 z m -4.6,-2.3 c 0,-1.9 -0.4,-3.4 -1.1,-4.5 -0.8,-1.1 -1.8,-1.7 -3,-1.7 -2.4,0 -3.8,2.1 -4.1,6.2 z"
   id="path3" />
		<path
   class="st0"
   d="m 213,61.4 h -4.5 V 46.3 c 0,-2.1 -0.2,-3.5 -0.7,-4.4 -0.5,-0.9 -1.2,-1.3 -2.4,-1.3 -1.5,0 -2.8,0.7 -3.7,2.2 v 18.6 h -4.5 V 36.8 h 4.5 v 1.7 c 0.5,-0.7 1.2,-1.2 2,-1.6 0.8,-0.4 1.7,-0.6 2.8,-0.6 2.3,0 3.9,0.8 4.9,2.3 1,1.5 1.5,3.8 1.5,7 v 15.8 z"
   id="path4" />
		<path
   class="st0"
   d="m 233.9,49 c 0,4.2 -0.8,7.4 -2.4,9.6 -1.6,2.2 -3.8,3.3 -6.6,3.3 -2.7,0 -4.8,-1 -6.3,-3.1 -1.6,-2.2 -2.4,-5.4 -2.4,-9.6 0,-4.3 0.8,-7.5 2.3,-9.7 1.5,-2.2 3.8,-3.3 6.6,-3.3 2.7,0 4.9,1.1 6.4,3.2 1.6,2.2 2.4,5.4 2.4,9.6 z m -4.5,0.1 c 0,-5.7 -1.5,-8.6 -4.4,-8.6 -2.9,0 -4.3,2.9 -4.3,8.6 0,5.7 1.5,8.5 4.4,8.5 1.4,0 2.5,-0.8 3.2,-2.3 0.7,-1.5 1.1,-3.6 1.1,-6.2 z"
   id="path5" />
		<path
   class="st0"
   d="m 164.4,87.2 c 0,5 -0.9,9 -2.6,11.9 -1.8,3.1 -4.5,4.6 -7.8,4.6 h -8 V 70.9 h 8 c 3.5,0 6.1,1.5 7.9,4.5 1.6,2.7 2.5,6.7 2.5,11.8 z m -4.8,0 c 0,-3.4 -0.4,-6.1 -1.2,-8.1 -1,-2.5 -2.5,-3.7 -4.6,-3.7 h -3.2 v 23.8 h 3.4 c 2,0 3.5,-1.3 4.5,-3.8 0.7,-2.1 1.1,-4.8 1.1,-8.2 z"
   id="path6" />
		<path
   class="st0"
   d="m 173.1,72.5 c 0,0.8 -0.3,1.4 -0.8,1.9 -0.5,0.5 -1.2,0.8 -1.9,0.8 -0.7,0 -1.4,-0.3 -2,-0.8 -0.6,-0.5 -0.8,-1.2 -0.8,-2 0,-0.8 0.3,-1.4 0.8,-2 0.5,-0.5 1.2,-0.8 2,-0.8 0.8,0 1.4,0.3 1.9,0.8 0.5,0.5 0.8,1.3 0.8,2.1 z m -0.5,31.2 h -4.5 V 79.1 h 4.5 z"
   id="path7" />
		<path
   class="st0"
   d="m 192,103.7 h -4.5 V 102 c -1.3,1.5 -3,2.3 -5.1,2.3 -1.9,0 -3.5,-0.7 -4.7,-2 -1.3,-1.5 -2,-3.6 -2,-6.3 0,-2.6 0.7,-4.6 2.2,-6 1.5,-1.4 3.4,-2.1 5.8,-2.1 1.4,0 2.6,0.3 3.8,0.8 v -2.4 c 0,-1.3 -0.2,-2.1 -0.7,-2.7 -0.5,-0.5 -1.3,-0.8 -2.5,-0.8 -1.5,0 -3.1,0.5 -4.8,1.5 l -1.9,-3.4 c 2.3,-1.6 4.7,-2.3 7.1,-2.3 2.7,0 4.6,0.5 5.7,1.6 1.1,1.1 1.7,3 1.7,5.7 v 17.8 z m -4.5,-5.8 v -5 c -0.5,-0.3 -1.1,-0.5 -1.6,-0.7 -0.6,-0.2 -1.3,-0.2 -2.1,-0.2 -1.1,0 -2,0.3 -2.6,1 -0.6,0.6 -1,1.6 -1,2.9 0,1.4 0.3,2.5 0.8,3.2 0.5,0.7 1.3,1.1 2.3,1.1 1.9,0 3.3,-0.8 4.2,-2.3 z"
   id="path8" />
		<path
   class="st0"
   d="m 212.5,91.7 c 0,4.1 -0.7,7.2 -2,9.4 -1.3,2.2 -3.2,3.2 -5.7,3.2 -1.7,0 -3.1,-0.6 -4.3,-1.9 v 1.3 H 196 V 71.9 l 4.5,-2.3 v 11.2 c 0.7,-0.7 1.3,-1.2 1.9,-1.5 0.8,-0.4 1.7,-0.6 2.7,-0.6 2.4,0 4.2,1 5.4,2.9 1.4,2 2,5.4 2,10.1 z m -4.5,0.2 c 0,-3.2 -0.3,-5.6 -0.9,-7 -0.6,-1.4 -1.6,-2.1 -2.9,-2.1 -0.8,0 -1.4,0.2 -2.1,0.6 -0.6,0.4 -1.2,0.9 -1.6,1.7 v 12.8 c 0.5,0.7 1.1,1.2 1.8,1.6 0.7,0.4 1.4,0.6 2.1,0.6 1.2,0 2.1,-0.6 2.7,-1.9 0.6,-1.3 0.9,-3.4 0.9,-6.3 z"
   id="path9" />
		<path
   class="st0"
   d="m 232.4,91.3 v 1.6 h -12.9 c 0,2.3 0.4,4.1 1.3,5.3 0.8,1.2 2,1.8 3.4,1.8 1,0 1.8,-0.1 2.4,-0.4 0.6,-0.3 1.3,-0.8 2,-1.5 l 2.8,2.9 c -0.9,1 -2,1.8 -3.2,2.4 -1.2,0.6 -2.6,0.9 -4.1,0.9 -2.9,0 -5.1,-1.1 -6.7,-3.4 -1.6,-2.3 -2.4,-5.4 -2.4,-9.3 0,-4.2 0.8,-7.4 2.4,-9.7 1.5,-2.2 3.6,-3.2 6.3,-3.2 2.6,0 4.7,1 6.2,3.1 1.6,2.2 2.5,5.4 2.5,9.5 z M 227.7,89 c 0,-1.9 -0.4,-3.4 -1.1,-4.5 -0.8,-1.1 -1.8,-1.7 -3,-1.7 -2.4,0 -3.8,2.1 -4.1,6.2 z"
   id="path10" />
		<path
   class="st0"
   d="m 245.6,98.9 -0.5,4.2 c -0.6,0.4 -1.2,0.7 -1.8,0.9 -0.6,0.2 -1.4,0.3 -2.2,0.3 -1.6,0 -2.8,-0.5 -3.6,-1.6 -0.8,-1.1 -1.1,-2.6 -1.1,-4.7 V 83.3 h -2.7 v -4.2 h 2.7 v -7.2 l 4.5,-2.4 v 9.6 h 4.7 v 4.2 h -4.7 v 14.2 c 0,1.6 0.6,2.4 1.9,2.4 0.6,0 1.1,-0.1 1.6,-0.3 0.4,-0.1 0.9,-0.4 1.2,-0.7 z"
   id="path11" />
		<path
   class="st0"
   d="m 265.1,91.3 v 1.6 h -12.9 c 0,2.3 0.4,4.1 1.3,5.3 0.8,1.2 2,1.8 3.4,1.8 1,0 1.8,-0.1 2.4,-0.4 0.6,-0.3 1.3,-0.8 2,-1.5 l 2.8,2.9 c -0.9,1 -2,1.8 -3.2,2.4 -1.2,0.6 -2.6,0.9 -4.1,0.9 -2.9,0 -5.1,-1.1 -6.7,-3.4 -1.6,-2.3 -2.4,-5.4 -2.4,-9.3 0,-4.2 0.8,-7.4 2.4,-9.7 1.5,-2.2 3.6,-3.2 6.3,-3.2 2.6,0 4.7,1 6.2,3.1 1.6,2.2 2.5,5.4 2.5,9.5 z M 260.4,89 c 0,-1.9 -0.4,-3.4 -1.1,-4.5 -0.8,-1.1 -1.8,-1.7 -3,-1.7 -2.4,0 -3.8,2.1 -4.1,6.2 z"
   id="path12" />
		<path
   class="st0"
   d="m 281.8,97 c 0,2.3 -0.7,4.1 -2,5.4 -1.3,1.3 -3.2,1.9 -5.6,1.9 -1.3,0 -2.6,-0.2 -3.9,-0.7 -1.3,-0.5 -2.5,-1.1 -3.7,-2 l 1.7,-3.8 c 2.3,1.4 4.2,2.1 5.7,2.1 1,0 1.8,-0.2 2.4,-0.7 0.6,-0.5 0.8,-1.1 0.8,-2 0,-1.2 -1.6,-2.8 -4.7,-4.6 -1.8,-1.1 -3,-2 -3.7,-2.8 -0.9,-1.2 -1.4,-2.6 -1.4,-4.5 0,-2.2 0.6,-3.8 1.9,-5 1.2,-1.2 3,-1.8 5.2,-1.8 1.3,0 2.4,0.2 3.6,0.6 1.1,0.4 2.2,1 3.1,1.7 l -1.8,3.8 c -1.7,-1.2 -3.4,-1.8 -5,-1.8 -0.8,0 -1.4,0.2 -1.8,0.6 -0.4,0.4 -0.6,0.9 -0.6,1.5 0,0.8 0.2,1.4 0.8,1.9 0.5,0.5 1.6,1.3 3.3,2.3 2.1,1.3 3.6,2.3 4.3,3.2 0.9,1.3 1.4,2.8 1.4,4.7 z"
   id="path13" />
		<path
   class="st0"
   d="m 163.2,138.3 c -0.6,2.7 -1.5,4.7 -2.7,6 -1.4,1.5 -3.4,2.3 -6,2.3 -3.3,0 -5.8,-1.6 -7.5,-4.9 -1.5,-2.9 -2.2,-6.9 -2.2,-12 0,-5.1 0.8,-9.1 2.3,-12.1 1.7,-3.3 4.2,-4.9 7.5,-4.9 2.6,0 4.6,0.8 6,2.3 1.2,1.3 2.1,3.2 2.5,5.8 l -4.6,1.2 c -0.3,-1.6 -0.8,-2.7 -1.3,-3.4 -0.6,-0.8 -1.5,-1.2 -2.8,-1.2 -1.8,0 -3.1,1.3 -3.9,3.9 -0.7,2.1 -1,4.9 -1,8.3 0,3.5 0.4,6.3 1.1,8.5 0.9,2.6 2.3,3.9 4.1,3.9 1.1,0 1.9,-0.4 2.5,-1.2 0.6,-0.8 1.1,-2.1 1.6,-3.9 z"
   id="path14" />
		<path
   class="st0"
   d="m 182.6,133.7 v 1.6 h -12.9 c 0,2.3 0.4,4.1 1.3,5.3 0.8,1.2 2,1.8 3.4,1.8 1,0 1.8,-0.1 2.4,-0.4 0.6,-0.3 1.3,-0.8 2,-1.5 l 2.8,2.9 c -0.9,1 -2,1.8 -3.2,2.4 -1.2,0.6 -2.6,0.9 -4.1,0.9 -2.9,0 -5.1,-1.1 -6.7,-3.4 -1.6,-2.3 -2.4,-5.4 -2.4,-9.3 0,-4.2 0.8,-7.4 2.4,-9.7 1.5,-2.2 3.6,-3.2 6.3,-3.2 2.6,0 4.7,1 6.2,3.1 1.7,2.1 2.5,5.3 2.5,9.5 z m -4.6,-2.3 c 0,-1.9 -0.4,-3.4 -1.1,-4.5 -0.7,-1.1 -1.8,-1.7 -3,-1.7 -2.4,0 -3.8,2.1 -4.1,6.2 z"
   id="path15" />
		<path
   class="st0"
   d="m 201.6,146.1 h -4.5 V 131 c 0,-2.1 -0.2,-3.5 -0.7,-4.4 -0.5,-0.9 -1.2,-1.3 -2.4,-1.3 -1.5,0 -2.8,0.7 -3.7,2.2 v 18.6 h -4.5 v -24.6 h 4.5 v 1.7 c 0.5,-0.7 1.2,-1.2 2,-1.6 0.8,-0.4 1.7,-0.6 2.8,-0.6 2.3,0 3.9,0.8 4.9,2.3 1,1.5 1.5,3.8 1.5,7 v 15.8 z"
   id="path16" />
		<path
   class="st0"
   d="m 215.8,141.3 -0.5,4.2 c -0.6,0.4 -1.2,0.7 -1.8,0.9 -0.6,0.2 -1.4,0.3 -2.2,0.3 -1.6,0 -2.8,-0.5 -3.6,-1.6 -0.8,-1.1 -1.1,-2.6 -1.1,-4.7 v -14.7 h -2.7 v -4.2 h 2.7 v -7.2 l 4.5,-2.4 v 9.6 h 4.7 v 4.2 H 211 v 14.2 c 0,1.6 0.6,2.4 1.9,2.4 0.6,0 1.1,-0.1 1.6,-0.3 0.5,-0.2 0.9,-0.4 1.3,-0.7 z"
   id="path17" />
		<path
   class="st0"
   d="m 235.2,133.7 v 1.6 h -12.9 c 0,2.3 0.4,4.1 1.3,5.3 0.8,1.2 2,1.8 3.4,1.8 1,0 1.8,-0.1 2.4,-0.4 0.6,-0.3 1.3,-0.8 2,-1.5 l 2.8,2.9 c -0.9,1 -2,1.8 -3.2,2.4 -1.2,0.6 -2.6,0.9 -4.1,0.9 -2.9,0 -5.1,-1.1 -6.7,-3.4 -1.6,-2.3 -2.4,-5.4 -2.4,-9.3 0,-4.2 0.8,-7.4 2.4,-9.7 1.5,-2.2 3.6,-3.2 6.3,-3.2 2.6,0 4.7,1 6.2,3.1 1.7,2.1 2.5,5.3 2.5,9.5 z m -4.7,-2.3 c 0,-1.9 -0.4,-3.4 -1.1,-4.5 -0.8,-1.1 -1.8,-1.7 -3,-1.7 -2.4,0 -3.8,2.1 -4.1,6.2 z"
   id="path18" />
		<path
   class="st0"
   d="m 250.7,121.8 -1.1,4.5 c -0.4,-0.2 -0.9,-0.4 -1.4,-0.6 -0.5,-0.1 -1.1,-0.2 -1.8,-0.2 -0.7,0 -1.4,0.1 -1.9,0.4 -0.6,0.3 -1.1,0.8 -1.6,1.5 V 146 h -4.5 v -24.6 h 4.5 v 1.7 c 0.5,-0.7 1.2,-1.2 1.9,-1.6 0.7,-0.4 1.5,-0.6 2.5,-0.6 0.7,0 1.4,0.1 1.9,0.2 0.5,0.2 1,0.4 1.5,0.7 z"
   id="path19" />
		<path
   class="st0"
   d="m 281.2,129.6 c 0,5 -0.8,9.1 -2.4,12.1 -1.8,3.3 -4.3,4.9 -7.6,4.9 -3.3,0 -5.8,-1.6 -7.5,-4.9 -1.6,-3 -2.3,-7 -2.3,-12 0,-5.1 0.8,-9.1 2.3,-12.1 1.7,-3.3 4.2,-4.9 7.6,-4.9 3.3,0 5.8,1.6 7.6,4.9 1.5,3 2.3,7 2.3,12 z m -4.7,0.1 c 0,-3.5 -0.4,-6.3 -1.2,-8.5 -0.9,-2.6 -2.3,-3.9 -4.2,-3.9 -1.8,0 -3.2,1.3 -4,3.9 -0.7,2.1 -1.1,4.9 -1.1,8.5 0,3.5 0.4,6.4 1.1,8.5 0.9,2.6 2.3,3.9 4.2,3.9 1.8,0 3.2,-1.3 4.1,-3.9 0.8,-2.1 1.1,-4.9 1.1,-8.5 z"
   id="path20" />
		<path
   class="st0"
   d="m 300.4,146.1 h -4.5 v -1.6 c -0.7,0.7 -1.4,1.3 -2,1.6 -0.7,0.4 -1.5,0.6 -2.6,0.6 -2.4,0 -4.2,-1 -5.4,-2.9 -1.3,-2.1 -2,-5.5 -2,-10.2 0,-4.1 0.7,-7.2 2,-9.4 1.3,-2.1 3.2,-3.2 5.7,-3.2 1.7,0 3.1,0.6 4.3,1.8 v -8.5 l 4.5,-2.3 z m -4.5,-6 v -12.8 c -0.5,-0.7 -1.1,-1.2 -1.8,-1.6 -0.7,-0.4 -1.4,-0.6 -2.1,-0.6 -1.2,0 -2.1,0.6 -2.7,1.9 -0.6,1.3 -0.9,3.3 -0.9,6.2 0,3.2 0.3,5.6 0.9,7 0.6,1.4 1.6,2.1 2.9,2.1 0.8,0 1.4,-0.2 2.1,-0.6 0.6,-0.3 1.2,-0.8 1.6,-1.6 z"
   id="path21" />
		<path
   class="st0"
   d="m 321.1,133.7 v 1.6 h -12.9 c 0,2.3 0.4,4.1 1.3,5.3 0.8,1.2 2,1.8 3.4,1.8 1,0 1.8,-0.1 2.4,-0.4 0.6,-0.3 1.3,-0.8 2,-1.5 l 2.8,2.9 c -0.9,1 -2,1.8 -3.2,2.4 -1.2,0.6 -2.6,0.9 -4.1,0.9 -2.9,0 -5.1,-1.1 -6.7,-3.4 -1.6,-2.3 -2.4,-5.4 -2.4,-9.3 0,-4.2 0.8,-7.4 2.4,-9.7 1.5,-2.2 3.6,-3.2 6.3,-3.2 2.6,0 4.7,1 6.2,3.1 1.7,2.1 2.5,5.3 2.5,9.5 z m -4.6,-2.3 c 0,-1.9 -0.4,-3.4 -1.1,-4.5 -0.8,-1.1 -1.8,-1.7 -3,-1.7 -2.4,0 -3.8,2.1 -4.1,6.2 z"
   id="path22" />
		<path
   class="st0"
   d="m 340,146.1 h -4.5 V 131 c 0,-2.1 -0.2,-3.5 -0.7,-4.4 -0.5,-0.9 -1.2,-1.3 -2.4,-1.3 -1.5,0 -2.8,0.7 -3.7,2.2 v 18.6 h -4.5 v -24.6 h 4.5 v 1.7 c 0.5,-0.7 1.2,-1.2 2,-1.6 0.8,-0.4 1.7,-0.6 2.8,-0.6 2.3,0 3.9,0.8 4.9,2.3 1,1.5 1.5,3.8 1.5,7 v 15.8 z"
   id="path23" />
		<path
   class="st0"
   d="m 357.8,139.4 c 0,2.3 -0.7,4.1 -2,5.4 -1.3,1.3 -3.2,1.9 -5.6,1.9 -1.3,0 -2.6,-0.2 -3.9,-0.7 -1.3,-0.5 -2.5,-1.1 -3.7,-2 l 1.7,-3.8 c 2.3,1.4 4.2,2.1 5.7,2.1 1,0 1.8,-0.2 2.4,-0.7 0.6,-0.5 0.8,-1.1 0.8,-2 0,-1.2 -1.6,-2.8 -4.7,-4.6 -1.8,-1.1 -3,-2 -3.7,-2.8 -0.9,-1.2 -1.4,-2.6 -1.4,-4.5 0,-2.2 0.6,-3.8 1.9,-5 1.2,-1.2 3,-1.8 5.2,-1.8 1.3,0 2.4,0.2 3.6,0.6 1.1,0.4 2.2,1 3.1,1.7 l -1.8,3.8 c -1.7,-1.2 -3.4,-1.8 -5,-1.8 -0.8,0 -1.4,0.2 -1.8,0.6 -0.4,0.4 -0.6,0.9 -0.6,1.5 0,0.8 0.2,1.4 0.8,1.9 0.5,0.5 1.6,1.3 3.3,2.3 2.1,1.3 3.6,2.3 4.3,3.2 0.9,1.2 1.4,2.8 1.4,4.7 z"
   id="path24" />
		<path
   class="st0"
   d="m 377.3,133.7 v 1.6 h -12.9 c 0,2.3 0.4,4.1 1.3,5.3 0.8,1.2 2,1.8 3.4,1.8 1,0 1.8,-0.1 2.4,-0.4 0.6,-0.3 1.3,-0.8 2,-1.5 l 2.8,2.9 c -0.9,1 -2,1.8 -3.2,2.4 -1.2,0.6 -2.6,0.9 -4.1,0.9 -2.9,0 -5.1,-1.1 -6.7,-3.4 -1.6,-2.3 -2.4,-5.4 -2.4,-9.3 0,-4.2 0.8,-7.4 2.4,-9.7 1.5,-2.2 3.6,-3.2 6.3,-3.2 2.6,0 4.7,1 6.2,3.1 1.7,2.1 2.5,5.3 2.5,9.5 z m -4.7,-2.3 c 0,-1.9 -0.4,-3.4 -1.1,-4.5 -0.8,-1.1 -1.8,-1.7 -3,-1.7 -2.4,0 -3.8,2.1 -4.1,6.2 z"
   id="path25" />
	</g>
	<path
   class="st1"
   d="m 123.9,76.7 c -0.9,-0.5 -3.4,-2.1 -11.7,5.6 1.8,-7.1 2.8,-13.6 2.8,-19.2 0,-10.5 -3.1,-18.2 -9.2,-21.9 -6.7,-4 -15.7,-2 -23.6,5.1 C 78.2,28 63.7,11.6 44.4,4.2 30,-1.4 18.1,-1.4 10.1,4.2 3.4,8.8 -0.1,17 0,27.7 c -0.3,11.1 4.3,17.8 9.2,24.9 5.6,8.1 11.4,16.5 10.3,32.7 -0.7,10.3 -1.3,19.3 3.4,23.9 2.7,2.5 6.7,3.5 12.5,2.9 8.7,-0.9 17.6,-8.4 21.8,-12.1 0,0.1 0,0.4 0,0.4 -0.5,4 -0.9,7.7 -0.9,10.8 0,4.2 0.7,7.5 2.8,9 0.9,0.6 2.1,0.8 3.3,0.4 2.4,-0.7 6,-3.6 9.8,-13.2 3.9,-9.8 4.5,-17.5 3.2,-19.6 -0.4,-0.7 -1.1,-1.1 -1.9,-1.2 -2.2,-0.3 -6,1.6 -11.6,6 2.1,-10.5 8.2,-25 16.8,-36.3 0.2,2.2 0.3,4.4 0.3,6.7 0,1.3 0,2.6 -0.1,4 -0.1,2.4 -0.2,4.6 -0.2,6.7 0,12.9 1.9,20.7 6,24.1 5.2,4.5 11,3 21.4,-5.9 -0.2,0.6 -0.4,1.5 -0.4,1.5 -2.6,8.6 -4.8,16.8 -4.8,22.5 0,3.7 0.9,6.3 3.3,7.4 4.5,2.1 11.1,-6.4 15.7,-15 4.3,-7.9 7.5,-17 7.5,-23.6 -0.1,-3.6 -1.1,-6.5 -3.5,-8 z m -61.3,19 c 0,0 3.6,-2.4 3.6,-2.4 4.1,-2.6 5.1,-2.6 5.3,-2.6 0.1,0.1 0.1,0.4 0.1,0.8 0,1.4 -0.7,4.9 -4.1,13.5 -3.9,9.9 -6,10.3 -6,10.3 -0.4,-0.4 -1.3,-2.5 -1.3,-8 0,-0.8 0,-1.6 0.1,-2.6 0.1,-2.2 0.4,-4.8 0.8,-8.1 0.6,-0.2 1.5,-0.9 1.5,-0.9 z m -5,0.1 c -9,6.5 -16.4,10.1 -20.6,10.2 -3.7,0.1 -6.7,-1 -9,-3.2 C 24.8,99.7 23.1,94.4 23.1,87.4 23.1,68.9 17.7,60.5 13,53.1 8.9,46.8 5.4,41.3 5.3,30.7 5.5,23.4 8.9,16.9 14.3,13.3 21.5,8.5 32.2,8.7 45.3,13.7 63.9,21 74.6,32.9 77.8,50.2 67.2,61.4 58.9,84.3 57.6,95.8 Z m 30.6,0 c -2.3,-1.9 -4.9,-7.4 -4.9,-22.3 0,-2 0,-4.1 0.1,-6.4 0.1,-1.6 0.1,-3.1 0.1,-4.7 0,-3.9 -0.2,-7.6 -0.7,-11.2 6.4,-6.1 12.5,-8.2 17.6,-6 6.1,2.7 10,11.3 10,21.8 0,0.6 0,1.2 0,1.8 -0.2,4.9 -1.2,10.9 -2.9,18 -13.5,11.9 -16.9,11 -19.3,9 z m 26.4,9.2 c -4.4,9.4 -8.1,13.9 -9.2,14.1 -0.9,-0.9 -1.4,-2.5 -1.4,-4.9 0,-5 1.9,-13.2 5.8,-24.5 0,0 0.4,-1.2 0.6,-1.7 0.3,-0.3 1.5,-1.4 1.5,-1.4 7.5,-7 9.4,-6.4 9.4,-6.4 0.3,0.4 0.5,1.2 0.5,2.2 0,4.3 -2.8,13.4 -7.2,22.6 z"
   id="path26" />
	<g
   id="g43">
		<g
   id="g42">
			<path
   class="st0"
   d="m 14.6,146.4 h -2 l -2,-5.7 H 9.1 v 5.7 H 7.2 v -13.1 h 3.7 c 1.1,0 1.9,0.3 2.5,0.8 0.7,0.6 1.1,1.6 1.1,2.8 0,0.9 -0.2,1.6 -0.5,2.2 -0.4,0.6 -0.9,1 -1.5,1.2 z M 12.7,137 c 0,-0.6 -0.2,-1.1 -0.5,-1.4 -0.3,-0.3 -0.8,-0.5 -1.4,-0.5 H 9.1 v 3.9 h 1.7 c 0.6,0 1.1,-0.2 1.4,-0.5 0.3,-0.4 0.5,-0.9 0.5,-1.5 z"
   id="path27" />
			<path
   class="st0"
   d="m 22.4,141.4 v 0.6 h -5.2 c 0,0.9 0.2,1.6 0.5,2.1 0.3,0.5 0.8,0.7 1.3,0.7 0.4,0 0.7,-0.1 1,-0.2 0.3,-0.1 0.5,-0.3 0.8,-0.6 l 1.1,1.2 c -0.4,0.4 -0.8,0.7 -1.3,1 -0.5,0.2 -1,0.4 -1.6,0.4 -1.1,0 -2,-0.5 -2.7,-1.4 -0.6,-0.9 -0.9,-2.2 -0.9,-3.7 0,-1.7 0.3,-3 1,-3.9 0.6,-0.9 1.5,-1.3 2.5,-1.3 1,0 1.9,0.4 2.5,1.3 0.7,0.9 1,2.2 1,3.8 z m -1.9,-0.9 c 0,-0.8 -0.1,-1.4 -0.5,-1.8 -0.3,-0.5 -0.7,-0.7 -1.2,-0.7 -0.9,0 -1.5,0.8 -1.6,2.5 z"
   id="path28" />
			<path
   class="st0"
   d="m 29.9,145.5 c 0,1.4 -0.3,2.5 -0.9,3.2 -0.6,0.7 -1.6,1.1 -3.1,1.3 l -0.5,-1.4 c 1.1,-0.1 1.8,-0.4 2.2,-0.8 0.4,-0.4 0.6,-1 0.6,-2 v -0.1 c -0.3,0.3 -0.5,0.5 -0.8,0.7 -0.3,0.1 -0.6,0.2 -1,0.2 -0.9,0 -1.7,-0.4 -2.2,-1.1 -0.5,-0.9 -0.8,-2.2 -0.8,-4.1 0,-1.6 0.3,-2.9 0.8,-3.7 0.5,-0.9 1.3,-1.3 2.3,-1.3 0.7,0 1.2,0.2 1.7,0.7 v -0.5 H 30 v 8.9 z M 28.1,144 v -5.1 c -0.2,-0.3 -0.4,-0.5 -0.7,-0.6 -0.3,-0.2 -0.6,-0.2 -0.9,-0.2 -0.5,0 -0.8,0.3 -1.1,0.8 -0.2,0.5 -0.4,1.3 -0.4,2.5 0,1.3 0.1,2.2 0.4,2.8 0.2,0.6 0.6,0.9 1.2,0.9 0.3,0 0.6,-0.1 0.8,-0.2 0.4,-0.4 0.6,-0.6 0.7,-0.9 z"
   id="path29" />
			<path
   class="st0"
   d="m 33.7,133.9 c 0,0.3 -0.1,0.6 -0.3,0.8 -0.2,0.2 -0.5,0.3 -0.8,0.3 -0.3,0 -0.6,-0.1 -0.8,-0.3 -0.2,-0.2 -0.3,-0.5 -0.3,-0.8 0,-0.3 0.1,-0.6 0.3,-0.8 0.2,-0.2 0.5,-0.3 0.8,-0.3 0.3,0 0.6,0.1 0.8,0.3 0.2,0.2 0.3,0.5 0.3,0.8 z m -0.2,12.5 h -1.8 v -9.8 h 1.8 z"
   id="path30" />
			<path
   class="st0"
   d="m 41.9,141.5 c 0,1.7 -0.3,3 -1,3.8 -0.6,0.9 -1.5,1.3 -2.6,1.3 -1.1,0 -1.9,-0.4 -2.5,-1.2 -0.6,-0.9 -1,-2.2 -1,-3.8 0,-1.7 0.3,-3 0.9,-3.9 0.6,-0.9 1.5,-1.3 2.6,-1.3 1.1,0 1.9,0.4 2.6,1.3 0.7,0.8 1,2.1 1,3.8 z m -1.8,0 c 0,-2.3 -0.6,-3.4 -1.8,-3.4 -1.1,0 -1.7,1.1 -1.7,3.4 0,2.3 0.6,3.4 1.7,3.4 0.6,0 1,-0.3 1.3,-0.9 0.4,-0.6 0.5,-1.5 0.5,-2.5 z"
   id="path31" />
			<path
   class="st0"
   d="m 49.5,146.4 h -1.8 v -6 c 0,-0.8 -0.1,-1.4 -0.3,-1.8 -0.2,-0.3 -0.5,-0.5 -0.9,-0.5 -0.6,0 -1.1,0.3 -1.5,0.9 v 7.4 h -1.8 v -9.8 H 45 v 0.7 c 0.2,-0.3 0.5,-0.5 0.8,-0.6 0.3,-0.2 0.7,-0.2 1.1,-0.2 0.9,0 1.6,0.3 2,0.9 0.4,0.6 0.6,1.5 0.6,2.8 z"
   id="path32" />
			<path
   class="st0"
   d="m 61.2,143 c 0,1.1 -0.3,1.9 -0.9,2.6 -0.6,0.7 -1.5,1 -2.6,1 -0.8,0 -1.5,-0.2 -2,-0.6 -0.6,-0.4 -1,-0.9 -1.4,-1.6 l 1.4,-1.2 c 0.3,0.5 0.7,0.9 1,1.1 0.3,0.2 0.7,0.3 1.1,0.3 1,0 1.6,-0.6 1.6,-1.7 0,-0.5 -0.1,-1 -0.4,-1.3 -0.3,-0.4 -0.9,-0.9 -1.8,-1.4 -0.9,-0.6 -1.5,-1.1 -1.9,-1.6 -0.5,-0.7 -0.8,-1.5 -0.8,-2.4 0,-1 0.3,-1.8 0.9,-2.4 0.6,-0.6 1.4,-0.9 2.4,-0.9 0.7,0 1.3,0.1 1.8,0.4 0.5,0.3 0.9,0.7 1.4,1.3 l -1.3,1.2 c -0.3,-0.4 -0.6,-0.7 -0.9,-0.9 -0.3,-0.2 -0.6,-0.3 -1,-0.3 -0.4,0 -0.8,0.1 -1,0.4 -0.2,0.2 -0.4,0.6 -0.4,1 0,0.5 0.1,0.9 0.4,1.2 0.3,0.3 0.8,0.7 1.5,1.2 1,0.7 1.7,1.2 2.1,1.7 0.5,1 0.8,1.9 0.8,2.9 z"
   id="path33" />
			<path
   class="st0"
   d="m 68.7,136.6 -3.9,13.3 H 63 l 1.1,-3.5 -2.7,-9.9 h 1.9 l 1.1,4.7 c 0,0.2 0.2,0.8 0.4,1.8 0.1,0.3 0.1,0.6 0.2,0.9 l 0.6,-2.7 1.2,-4.6 z"
   id="path34" />
			<path
   class="st0"
   d="m 75.7,146.4 h -1.8 v -0.7 c -0.3,0.3 -0.5,0.5 -0.8,0.7 -0.3,0.2 -0.6,0.2 -1,0.2 -0.9,0 -1.7,-0.4 -2.2,-1.1 -0.5,-0.9 -0.8,-2.2 -0.8,-4.1 0,-1.6 0.3,-2.9 0.8,-3.7 0.5,-0.9 1.3,-1.3 2.3,-1.3 0.7,0 1.2,0.2 1.7,0.7 v -3.4 l 1.8,-0.9 z M 73.9,144 v -5.1 c -0.2,-0.3 -0.4,-0.5 -0.7,-0.6 -0.3,-0.2 -0.6,-0.2 -0.9,-0.2 -0.5,0 -0.8,0.3 -1.1,0.8 -0.2,0.5 -0.4,1.3 -0.4,2.5 0,1.3 0.1,2.2 0.4,2.8 0.2,0.6 0.6,0.9 1.2,0.9 0.3,0 0.6,-0.1 0.8,-0.2 0.3,-0.4 0.5,-0.6 0.7,-0.9 z"
   id="path35" />
			<path
   class="st0"
   d="m 83.6,146.4 h -1.8 v -0.7 c -0.3,0.3 -0.5,0.5 -0.8,0.7 -0.3,0.2 -0.6,0.2 -1,0.2 -0.9,0 -1.7,-0.4 -2.2,-1.1 -0.5,-0.9 -0.8,-2.2 -0.8,-4.1 0,-1.6 0.3,-2.9 0.8,-3.7 0.5,-0.9 1.3,-1.3 2.3,-1.3 0.7,0 1.2,0.2 1.7,0.7 v -3.4 l 1.8,-0.9 z M 81.8,144 v -5.1 c -0.2,-0.3 -0.4,-0.5 -0.7,-0.6 -0.3,-0.2 -0.6,-0.2 -0.9,-0.2 -0.5,0 -0.8,0.3 -1.1,0.8 -0.2,0.5 -0.4,1.3 -0.4,2.5 0,1.3 0.1,2.2 0.4,2.8 0.2,0.6 0.6,0.9 1.2,0.9 0.3,0 0.6,-0.1 0.8,-0.2 0.3,-0.4 0.5,-0.6 0.7,-0.9 z"
   id="path36" />
			<path
   class="st0"
   d="m 91.3,146.4 h -1.8 v -0.7 c -0.5,0.6 -1.2,0.9 -2,0.9 -0.8,0 -1.4,-0.3 -1.9,-0.8 -0.5,-0.6 -0.8,-1.4 -0.8,-2.5 0,-1 0.3,-1.8 0.9,-2.4 0.6,-0.6 1.4,-0.8 2.3,-0.8 0.5,0 1,0.1 1.5,0.3 v -1 c 0,-0.5 -0.1,-0.9 -0.3,-1.1 -0.2,-0.2 -0.5,-0.3 -1,-0.3 -0.6,0 -1.2,0.2 -1.9,0.6 l -0.8,-1.4 c 0.9,-0.6 1.9,-0.9 2.8,-0.9 1.1,0 1.8,0.2 2.3,0.6 0.4,0.4 0.7,1.2 0.7,2.3 z m -1.8,-2.3 v -2 c -0.2,-0.1 -0.4,-0.2 -0.7,-0.3 -0.2,-0.1 -0.5,-0.1 -0.8,-0.1 -0.4,0 -0.8,0.1 -1,0.4 -0.3,0.3 -0.4,0.7 -0.4,1.2 0,0.6 0.1,1 0.3,1.3 0.2,0.3 0.5,0.4 0.9,0.4 0.8,0 1.3,-0.3 1.7,-0.9 z"
   id="path37" />
			<path
   class="st0"
   d="m 99.2,146.4 h -1.8 v -6 c 0,-0.8 -0.1,-1.4 -0.3,-1.8 -0.2,-0.3 -0.5,-0.5 -0.9,-0.5 -0.6,0 -1.1,0.3 -1.5,0.9 v 7.4 h -1.8 v -9.8 h 1.8 v 0.7 c 0.2,-0.3 0.5,-0.5 0.8,-0.6 0.3,-0.2 0.7,-0.2 1.1,-0.2 0.9,0 1.6,0.3 2,0.9 0.4,0.6 0.6,1.5 0.6,2.8 v 6.2 z"
   id="path38" />
			<path
   class="st0"
   d="m 111.1,146.4 h -1.8 v -6 c 0,-0.9 -0.1,-1.5 -0.2,-1.8 -0.1,-0.3 -0.4,-0.5 -0.8,-0.5 -0.6,0 -1.1,0.3 -1.5,0.9 v 7.4 H 105 v -6 c 0,-0.9 -0.1,-1.5 -0.2,-1.8 -0.1,-0.3 -0.4,-0.5 -0.8,-0.5 -0.6,0 -1.1,0.3 -1.5,0.9 v 7.4 h -1.8 v -9.8 h 1.8 v 0.7 c 0.2,-0.3 0.5,-0.5 0.8,-0.6 0.3,-0.2 0.7,-0.2 1.1,-0.2 0.9,0 1.6,0.4 2,1 0.3,-0.4 0.7,-0.7 1,-0.8 0.4,-0.2 0.8,-0.2 1.3,-0.2 0.9,0 1.6,0.3 2,1 0.3,0.6 0.5,1.5 0.5,2.9 v 6 z"
   id="path39" />
			<path
   class="st0"
   d="m 118.7,146.4 h -1.8 v -0.7 c -0.5,0.6 -1.2,0.9 -2,0.9 -0.8,0 -1.4,-0.3 -1.9,-0.8 -0.5,-0.6 -0.8,-1.4 -0.8,-2.5 0,-1 0.3,-1.8 0.9,-2.4 0.6,-0.6 1.4,-0.8 2.3,-0.8 0.5,0 1,0.1 1.5,0.3 v -1 c 0,-0.5 -0.1,-0.9 -0.3,-1.1 -0.2,-0.2 -0.5,-0.3 -1,-0.3 -0.6,0 -1.2,0.2 -1.9,0.6 l -0.8,-1.4 c 0.9,-0.6 1.9,-0.9 2.8,-0.9 1.1,0 1.8,0.2 2.3,0.6 0.4,0.4 0.7,1.2 0.7,2.3 z m -1.8,-2.3 v -2 c -0.2,-0.1 -0.4,-0.2 -0.7,-0.3 -0.2,-0.1 -0.5,-0.1 -0.8,-0.1 -0.4,0 -0.8,0.1 -1,0.4 -0.3,0.3 -0.4,0.7 -0.4,1.2 0,0.6 0.1,1 0.3,1.3 0.2,0.3 0.5,0.4 0.9,0.4 0.8,0 1.4,-0.3 1.7,-0.9 z"
   id="path40" />
			<path
   class="st0"
   d="m 125.2,136.7 -0.4,1.8 c -0.2,-0.1 -0.4,-0.2 -0.6,-0.2 -0.2,0 -0.4,-0.1 -0.7,-0.1 -0.3,0 -0.5,0.1 -0.8,0.2 -0.2,0.1 -0.4,0.3 -0.6,0.6 v 7.4 h -1.8 v -9.8 h 1.8 v 0.7 c 0.2,-0.3 0.5,-0.5 0.7,-0.6 0.3,-0.2 0.6,-0.2 1,-0.2 0.3,0 0.5,0 0.8,0.1 0.2,-0.1 0.4,0 0.6,0.1 z"
   id="path41" />
			<path
   class="st0"
   d="m 132.5,146.4 h -2 l -1.6,-4.6 -1,1.6 v 3 h -1.8 v -12.7 l 1.8,-0.9 v 5.9 2.1 l 0.8,-1.5 1.5,-2.7 h 2 l -2.1,3.4 z"
   id="path42" />
		</g>
	</g>
</g>
</svg>
